<?xml version="1.0" standalone="no"?>
<!DOCTYPE svg PUBLIC "-//W3C//DTD SVG 20010904//EN"
 "http://www.w3.org/TR/2001/REC-SVG-20010904/DTD/svg10.dtd">
<svg version="1.0" xmlns="http://www.w3.org/2000/svg"
 width="1100.000000pt" height="1100.000000pt" viewBox="0 0 1100.000000 1100.000000"
 preserveAspectRatio="xMidYMid meet">
<metadata>
Created by potrace 1.14, written by Peter Selinger 2001-2017
</metadata>
<g transform="translate(0.000000,1100.000000) scale(0.100000,-0.100000)"
fill="#000000" stroke="none">
<path d="M2089 10267 c-1 -1 -2 -2120 -3 -4709 l-1 -4708 876 0 876 0 1 328
c0 180 1 334 1 343 1 11 20 -1 59 -38 435 -415 1072 -685 1747 -740 191 -15
727 -8 805 12 8 2 44 7 80 10 36 4 68 9 71 10 3 2 28 7 55 11 27 3 52 8 55 10
3 2 20 6 37 9 184 32 466 133 641 228 384 209 678 471 913 812 209 303 391
727 473 1103 41 185 78 399 100 582 3 25 8 61 10 80 5 37 9 85 22 260 10 133
10 706 0 825 -22 257 -25 290 -31 335 -3 19 -8 58 -11 85 -3 28 -7 61 -10 75
-5 29 -14 91 -21 139 -10 74 -66 341 -94 446 -144 542 -401 1006 -731 1320
-132 126 -174 160 -329 266 -62 43 -227 143 -239 145 -3 0 -41 17 -84 37 -43
21 -81 37 -84 37 -3 0 -19 6 -36 14 -75 34 -337 105 -447 121 -24 4 -47 8 -50
10 -3 1 -34 6 -70 10 -36 3 -78 8 -93 10 -190 23 -637 24 -822 1 -16 -2 -59
-7 -95 -11 -36 -4 -67 -8 -70 -10 -3 -1 -30 -6 -61 -9 -62 -7 -63 -7 -164 -30
-38 -9 -81 -19 -94 -22 -46 -10 -217 -66 -281 -92 -205 -82 -470 -243 -620
-374 -83 -73 -106 -97 -162 -167 l-28 -34 0 1636 0 1635 -1045 0 c-575 0
-1046 0 -1046 -1z m3661 -4212 c198 -35 308 -68 409 -122 360 -193 550 -519
607 -1038 3 -33 8 -73 10 -90 26 -193 25 -941 -1 -1095 -2 -14 -6 -50 -9 -80
-25 -234 -73 -412 -156 -581 -55 -111 -114 -193 -200 -280 -175 -176 -387
-272 -675 -306 -134 -15 -530 -8 -587 12 -7 2 -29 6 -48 9 -69 10 -216 57
-296 95 -201 96 -351 240 -462 443 -59 109 -125 310 -146 448 -3 19 -8 45 -10
57 -3 12 -8 53 -11 90 -4 37 -8 79 -11 93 -25 149 -25 984 0 1140 3 14 7 52
10 85 4 33 8 71 10 85 3 14 7 41 10 60 10 68 54 226 85 306 112 291 350 514
651 612 81 26 195 50 286 58 38 4 71 8 73 10 7 6 421 -4 461 -11z"/>
</g>
</svg>
