<svg width="200" viewBox="0 0 383.26 61.198" xmlns="http://www.w3.org/2000/svg"><defs><clipPath clipPathUnits="userSpaceOnUse" id="a"><path d="M0 500h500V0H0z"/></clipPath></defs><g clip-path="url(#a)" transform="matrix(1.33333 0 0 -1.33333 -141.227 371.967)"><path d="M0 0a5.597 5.597 0 1 0-11.194 0A5.597 5.597 0 0 0 0 0" style="fill:#e8894d;fill-opacity:1;fill-rule:nonzero;stroke:none" transform="translate(221.631 238.674)"/><path d="M0 0c.959 1.129 2.439 1.695 4.443 1.695 2.13 0 3.632-.576 4.507-1.726.872-1.151 1.31-2.58 1.31-4.284H-1.694C-1.524-2.568-.959-1.129 0 0m8.693-16.749c-.831-.661-2.163-.991-3.995-.991-2.173 0-3.782.565-4.826 1.695-1.045 1.128-1.588 2.78-1.63 4.955h22.246c.085.467.128.947.128 1.437v1.438c0 2.131-.223 4.23-.671 6.298-.448 2.067-1.269 3.909-2.461 5.529-1.194 1.619-2.803 2.918-4.827 3.899-2.024.98-4.592 1.471-7.703 1.471-3.367 0-6.127-.479-8.278-1.438-2.153-.96-3.858-2.237-5.114-3.835a14.02 14.02 0 0 1-2.622-5.435 26.127 26.127 0 0 1-.735-6.168c0-2.132.245-4.21.735-6.234s1.364-3.825 2.622-5.401c1.256-1.578 2.982-2.845 5.177-3.804 2.195-.958 4.997-1.438 8.407-1.438 2.471 0 4.645.256 6.52.767 1.875.512 3.452 1.235 4.731 2.174 1.278.937 2.279 2.045 3.004 3.324a10.067 10.067 0 0 1 1.279 4.154H10.26c-.214-.937-.735-1.736-1.567-2.397" style="fill:#2970a0;fill-opacity:1;fill-rule:nonzero;stroke:none" transform="translate(152.688 257.848)"/><path d="M0 0c-.938 1.342-2.237 2.397-3.899 3.165-1.663.766-3.836 1.15-6.521 1.15-3.111 0-5.604-.502-7.479-1.502-1-.534-1.843-1.121-2.54-1.758V3.74h-8.392v-32.603h9.973v18.347c0 2.173.415 3.804 1.246 4.89.831 1.087 2.334 1.63 4.507 1.63 1.151 0 2.078-.127 2.781-.383.703-.255 1.257-.661 1.662-1.215.404-.554.671-1.236.799-2.045.128-.811.192-1.769.192-2.877v-18.347H2.366v17.964c0 2.214-.161 4.251-.48 6.104C1.567-2.941.937-1.343 0 0" style="fill:#2970a0;fill-opacity:1;fill-rule:nonzero;stroke:none" transform="translate(204.378 262.515)"/><path d="M0 0c1.875 0 3.228-.426 4.059-1.278.831-.853 1.352-2.344 1.566-4.474h10.036c0 4.304-1.267 7.723-3.802 10.26C9.322 7.043 5.434 8.312.192 8.312c-3.282 0-5.988-.48-8.119-1.439-2.131-.96-3.825-2.227-5.082-3.804-1.257-1.577-2.142-3.378-2.653-5.402a25.364 25.364 0 0 1-.767-6.232c0-2.132.244-4.21.735-6.234a13.483 13.483 0 0 1 2.653-5.401c1.278-1.578 3.005-2.845 5.178-3.804 2.173-.958 4.923-1.438 8.247-1.438 5.241 0 9.098 1.256 11.57 3.771 2.471 2.515 3.707 5.924 3.707 10.229H5.625c-.214-1.918-.725-3.347-1.534-4.283-.81-.938-2.173-1.407-4.091-1.407-1.322 0-2.397.192-3.228.576a4.648 4.648 0 0 0-1.982 1.694c-.49.745-.831 1.651-1.023 2.716-.192 1.066-.288 2.28-.288 3.645 0 2.726.448 4.826 1.343 6.296C-4.283-.735-2.557 0 0 0" style="fill:#2970a0;fill-opacity:1;fill-rule:nonzero;stroke:none" transform="translate(240.145 258.646)"/><path d="M0 0c-.981-1.534-2.771-2.301-5.371-2.301-1.236 0-2.28.202-3.131.606A5.053 5.053 0 0 0-10.548.031c-.511.747-.885 1.641-1.119 2.686-.235 1.043-.352 2.226-.352 3.548 0 2.599.48 4.666 1.439 6.201.959 1.534 2.717 2.3 5.273 2.3 1.321 0 2.419-.202 3.293-.606.873-.406 1.567-.982 2.078-1.727.511-.746.873-1.64 1.087-2.684.212-1.045.319-2.206.319-3.484C1.47 3.622.98 1.534 0 0m7.702 17.867c-1.257 1.555-2.939 2.813-5.049 3.772-2.11.959-4.762 1.439-7.96 1.439-3.238 0-5.913-.48-8.022-1.439-2.109-.959-3.783-2.217-5.018-3.772-1.237-1.555-2.1-3.346-2.589-5.37a26.343 26.343 0 0 1-.735-6.232c0-2.132.244-4.21.735-6.234.489-2.023 1.342-3.825 2.557-5.4 1.214-1.578 2.877-2.857 4.986-3.837s4.784-1.47 8.022-1.47c3.239 0 5.914.48 8.024 1.439 2.11.958 3.782 2.226 5.018 3.804 1.236 1.575 2.109 3.376 2.62 5.4.512 2.024.768 4.125.768 6.298 0 2.131-.246 4.207-.735 6.232-.491 2.024-1.364 3.815-2.622 5.37" style="fill:#2970a0;fill-opacity:1;fill-rule:nonzero;stroke:none" transform="translate(279.656 243.88)"/><path d="M0 0c-.15-1.065-.459-1.981-.927-2.749-.469-.767-1.13-1.364-1.981-1.79-.853-.426-1.961-.639-3.324-.639-1.365 0-2.451.213-3.26.639a4.847 4.847 0 0 0-1.919 1.79c-.468.768-.777 1.684-.927 2.749a25.474 25.474 0 0 0-.224 3.516c0 1.278.075 2.45.224 3.515.15 1.066.459 1.983.927 2.75a4.805 4.805 0 0 0 1.95 1.789c.832.426 1.928.64 3.293.64 1.405 0 2.535-.224 3.388-.671.852-.447 1.502-1.055 1.95-1.822.447-.767.735-1.684.863-2.748.127-1.067.191-2.218.191-3.453A25.32 25.32 0 0 0 0 0m.033 16.621c-.726.979-1.876 1.843-3.453 2.589-1.577.745-3.644 1.119-6.201 1.119-2.556 0-4.677-.48-6.36-1.438-1.685-.96-3.026-2.228-4.028-3.804-1.001-1.577-1.705-3.378-2.109-5.402a31.3 31.3 0 0 1-.608-6.169c0-2.089.225-4.145.672-6.169.447-2.024 1.215-3.836 2.302-5.434 1.086-1.598 2.535-2.888 4.346-3.868s4.059-1.47 6.744-1.47c1.577 0 3.005.171 4.284.512 1.278.34 2.397.787 3.355 1.343a12.556 12.556 0 0 1 2.494 1.853c.072.07.137.139.206.208v-3.34h8.392v45.196H.033z" style="fill:#2970a0;fill-opacity:1;fill-rule:nonzero;stroke:none" transform="translate(315.62 246.628)"/><path d="M0 0c.96 1.129 2.44 1.695 4.443 1.695 2.131 0 3.634-.576 4.507-1.726.873-1.151 1.31-2.58 1.31-4.284H-1.693C-1.524-2.568-.959-1.129 0 0m8.695-16.749c-.832-.661-2.164-.991-3.997-.991-2.173 0-3.782.565-4.825 1.695-1.045 1.128-1.589 2.78-1.631 4.955h22.247c.085.467.128.947.128 1.437v1.438c0 2.131-.224 4.23-.671 6.298-.449 2.067-1.269 3.909-2.461 5.529-1.195 1.619-2.804 2.918-4.827 3.899-2.025.98-4.593 1.471-7.703 1.471-3.367 0-6.127-.479-8.279-1.438-2.152-.96-3.857-2.237-5.114-3.835a14.019 14.019 0 0 1-2.621-5.435 26.127 26.127 0 0 1-.735-6.168c0-2.132.245-4.21.735-6.234s1.363-3.825 2.621-5.401c1.257-1.578 2.983-2.845 5.178-3.804 2.195-.958 4.996-1.438 8.407-1.438 2.471 0 4.644.256 6.52.767 1.874.512 3.452 1.235 4.73 2.174 1.279.937 2.28 2.045 3.005 3.324a10.067 10.067 0 0 1 1.279 4.154H10.26c-.214-.937-.735-1.736-1.565-2.397" style="fill:#2970a0;fill-opacity:1;fill-rule:nonzero;stroke:none" transform="translate(339.66 257.975)"/><path d="M0 0c-1.023 1.235-2.302 2.205-3.835 2.908-1.534.704-3.208 1.235-5.02 1.598-1.811.362-3.484.704-5.017 1.023-1.534.32-2.813.692-3.836 1.119-1.024.425-1.535 1.044-1.535 1.853 0 .896.352 1.598 1.055 2.111.704.511 2.014.766 3.931.766 2.047 0 3.462-.426 4.251-1.279.789-.853 1.184-2.002 1.184-3.451H.383c0 1.917-.245 3.612-.735 5.082-.49 1.47-1.3 2.706-2.429 3.707-1.13 1.001-2.632 1.748-4.507 2.238-1.876.49-4.199.736-6.969.736-2.685 0-4.976-.278-6.872-.832-1.897-.554-3.452-1.3-4.666-2.237-1.214-.937-2.1-2.046-2.653-3.324a10.187 10.187 0 0 1-.831-4.092c0-1.917.511-3.451 1.535-4.602 1.022-1.151 2.31-2.068 3.867-2.749 1.555-.683 3.238-1.204 5.05-1.566 1.811-.363 3.493-.704 5.05-1.023 1.555-.32 2.845-.693 3.868-1.119 1.023-.426 1.534-1.065 1.534-1.917 0-.853-.394-1.578-1.182-2.175-.79-.597-2.185-.894-4.187-.894-1.238 0-2.27.117-3.101.351-.831.234-1.492.576-1.982 1.023-.49.447-.831.991-1.023 1.631a7.302 7.302 0 0 0-.288 2.109h-9.653c0-4.475 1.3-7.651 3.9-9.525 2.599-1.876 6.755-2.813 12.466-2.813 2.684 0 4.965.31 6.841.927 1.874.617 3.419 1.416 4.634 2.397C-.735-11.039.148-9.92.704-8.662c.552 1.256.83 2.502.83 3.739C1.534-2.877 1.023-1.237 0 0" style="fill:#2970a0;fill-opacity:1;fill-rule:nonzero;stroke:none" transform="translate(391.832 248.547)"/><path d="M0 0c0 1.235.064 2.386.191 3.452.128 1.064.416 1.981.863 2.749.447.766 1.098 1.374 1.95 1.822.853.447 1.982.67 3.388.67 1.364 0 2.461-.213 3.293-.639a4.803 4.803 0 0 0 1.949-1.789c.469-.768.778-1.685.928-2.75.149-1.065.223-2.237.223-3.515 0-1.279-.074-2.451-.223-3.516-.15-1.066-.459-1.981-.928-2.749a4.837 4.837 0 0 0-1.918-1.79c-.809-.426-1.896-.64-3.26-.64-1.363 0-2.471.214-3.324.64-.852.426-1.513 1.022-1.981 1.79-.469.768-.778 1.683-.927 2.749A25.32 25.32 0 0 0 0 0m.191 28.83H-9.845v-45.196h8.392v3.341c.069-.07.133-.139.205-.209.704-.682 1.536-1.3 2.494-1.853.959-.555 2.078-1.002 3.356-1.343 1.279-.34 2.707-.511 4.284-.511 2.684 0 4.933.49 6.743 1.47 1.812.98 3.26 2.27 4.347 3.868 1.087 1.598 1.854 3.41 2.302 5.433A28.53 28.53 0 0 1 22.95 0c0 2.087-.203 4.144-.608 6.168-.405 2.024-1.108 3.826-2.11 5.402-1.001 1.577-2.343 2.845-4.027 3.804-1.684.959-3.804 1.439-6.361 1.439-2.556 0-4.623-.375-6.201-1.12-1.576-.746-2.726-1.609-3.452-2.589z" style="fill:#2970a0;fill-opacity:1;fill-rule:nonzero;stroke:none" transform="translate(115.766 250.018)"/></g></svg>
